# xmcd
#
# Track frame offsets:
#	183
#	10293
#	28568
#	63788
#	96113
#	110513
#	125340
#	140613
#
# Disc length: 2577 seconds
#
# Revision: 79
# Processed by: cddbd v1.5.2PL0 Copyright (c) Steve Scherf et al.
# Submitted via: Rip'N'TagIt 1.5.0.0 
#
DISCID=630a0f08
DTITLE=The Doors - The Best Of The Doors [CD2 of 2)
DYEAR=1985
DGENRE=Classic Rock
TTITLE0=Hello, I Love You
TTITLE1=Roadhouse Blues
TTITLE2=L.A. Woman
TTITLE3=Riders On The Storm
TTITLE4=Touch Me
TTITLE5=Love Her Madly
TTITLE6=The Unknown Soldier
TTITLE7=The End
EXTD=Published by The Doors Music Company, ASCAP YEAR: 1985 ID3G: 1
EXTT0=
EXTT1=
EXTT2=
EXTT3=
EXTT4=
EXTT5=
EXTT6=
EXTT7=
PLAYORDER=
